<?xml version="1.0" encoding="utf-8"?>
<!-- Uploaded to: SVG Repo, www.svgrepo.com, Generator: SVG Repo Mixer Tools -->
<svg width="800px" height="800px" viewBox="0 0 1024 1024" class="icon"  version="1.1" xmlns="http://www.w3.org/2000/svg"><path d="M787.283948 794.09569A171.029107 171.029107 0 0 0 831.480325 679.287445c0-95.012617-85.994254-229.39263-172.020487-315.386883S439.053592 191.880075 344.072954 191.880075c-59.802623 0-112.441724 30.540912-143.270456 76.84797l-0.09594-0.09594-0.1599 0.51168C80.141911 389.548532 0 793.36015 0 908.648095a114.744285 114.744285 0 0 0 114.712305 114.712305c115.831605 0 544.843473-101.53654 672.379762-229.04085l0.319801-0.12792-0.12792-0.09594z" fill="#EF4D4D" /><path d="M837.236727 267.224984c7.195503-6.364022 14.454966-13.079825 22.130169-20.755028C941.363648 164.409244 1023.3604 0.4797 1023.3604 0.4797s-163.961524 81.932792-246.022236 163.929544c-7.611243 7.643223-14.391006 14.902686-20.723048 22.034229-5.436602-80.845472-42.757277-186.475453-42.757277-186.475453s-34.698314 98.338538-42.053717 177.808869c-33.770893-30.412992-72.498688-53.726421-72.498688-53.726421s0.67158 98.690319 28.877951 148.355278c22.322049 39.239475 64.919425 58.139663 64.919426 58.139663s18.196627 43.268957 57.627982 65.463086c49.95278 28.334291 149.634478 29.037851 149.634479 29.037851s-23.697189-39.143535-54.621862-73.042348C925.213741 344.648595 1023.3604 309.982261 1023.3604 309.982261s-105.406121-37.160775-186.123673-42.757277z" fill="#3AAD73" /><path d="M777.338164 164.409244c-7.611243 7.643223-14.391006 14.902686-20.723048 22.034229-5.436602-80.845472-42.757277-186.475453-42.757277-186.475453s-34.698314 98.338538-42.053717 177.808869c-33.770893-30.412992-72.498688-53.726421-72.498688-53.726421s0.67158 98.690319 28.877951 148.355278c22.002249 38.663835 63.480325 57.500062 64.727546 58.011743L1022.400999 0.9594c-10.169644 5.116802-165.688445 84.171393-245.062835 163.449844zM828.442224 647.467333a172.180387 172.180387 0 0 1-41.158276 82.668332l0.12792 0.09594-0.319801 0.12792C659.555778 857.863835 230.54391 959.400375 114.712305 959.400375a114.808245 114.808245 0 0 1-112.377764-91.526796A485.13679 485.13679 0 0 0 0 908.648095a114.744285 114.744285 0 0 0 114.712305 114.712305c115.831605 0 544.843473-101.53654 672.379762-229.04085l0.319801-0.12792-0.12792-0.09594A171.029107 171.029107 0 0 0 831.480325 679.287445c0-10.201624-1.18326-20.882948-3.038101-31.820112z" fill="" /><path d="M415.740162 479.668207m-31.980012 0a31.980012 31.980012 0 1 0 63.960025 0 31.980012 31.980012 0 1 0-63.960025 0Z" fill="" /><path d="M223.860087 607.588257m-31.980012 0a31.980012 31.980012 0 1 0 63.960025 0 31.980012 31.980012 0 1 0-63.960025 0Z" fill="" /><path d="M351.780137 735.508307m-31.980012 0a31.980012 31.980012 0 1 0 63.960025 0 31.980012 31.980012 0 1 0-63.960025 0Z" fill="" /><path d="M543.660212 831.448345m-31.980012 0a31.980012 31.980012 0 1 0 63.960025 0 31.980012 31.980012 0 1 0-63.960025 0Z" fill="" /><path d="M223.860087 895.40837m-31.980012 0a31.980012 31.980012 0 1 0 63.960025 0 31.980012 31.980012 0 1 0-63.960025 0Z" fill="" /><path d="M127.92005 767.48832m-31.980013 0a31.980012 31.980012 0 1 0 63.960025 0 31.980012 31.980012 0 1 0-63.960025 0Z" fill="" /><path d="M191.880075 447.688195m-31.980013 0a31.980012 31.980012 0 1 0 63.960025 0 31.980012 31.980012 0 1 0-63.960025 0Z" fill="" /><path d="M511.6802 639.56827m-31.980013 0a31.980012 31.980012 0 1 0 63.960025 0 31.980012 31.980012 0 1 0-63.960025 0Z" fill="" /><path d="M703.560275 671.548282m-31.980013 0a31.980012 31.980012 0 1 0 63.960025 0 31.980012 31.980012 0 1 0-63.960025 0Z" fill="" /><path d="M607.620237 511.64822m-31.980012 0a31.980012 31.980012 0 1 0 63.960025 0 31.980012 31.980012 0 1 0-63.960025 0Z" fill="" /><path d="M383.76015 319.768145m-31.980013 0a31.980012 31.980012 0 1 0 63.960025 0 31.980012 31.980012 0 1 0-63.960025 0Z" fill="" /></svg>